<?xml version="1.0" encoding="utf-8"?>
<!-- Generator: Adobe Illustrator 17.0.0, SVG Export Plug-In . SVG Version: 6.00 Build 0)  -->
<!DOCTYPE svg PUBLIC "-//W3C//DTD SVG 1.1//EN" "http://www.w3.org/Graphics/SVG/1.1/DTD/svg11.dtd">
<svg version="1.1" id="Layer_1" xmlns="http://www.w3.org/2000/svg" xmlns:xlink="http://www.w3.org/1999/xlink" x="0px" y="0px"
	 width="119.25px" height="28.125px" viewBox="0 0 119.25 28.125" enable-background="new 0 0 119.25 28.125" xml:space="preserve">
<polygon fill="#FFFFFF" points="0.196,15.837 0.196,1.664 2.036,1.664 2.036,15.138 8.335,15.138 8.335,15.837 "/>
<g>
	<defs>
		<rect id="SVGID_1_" x="-10" y="-14.25" width="147" height="52"/>
	</defs>
	<clipPath id="SVGID_2_">
		<use xlink:href="#SVGID_1_"  overflow="visible"/>
	</clipPath>
	<path clip-path="url(#SVGID_2_)" fill="#FFFFFF" d="M14.659,6.19c2.99,0,5.406,2.407,5.406,4.923c0,2.602-1.838,4.942-5.406,4.942
		c-3.018,0-5.434-2.404-5.434-4.942C9.225,8.532,11.063,6.19,14.659,6.19 M14.659,15.573c2.021,0,3.725-1.529,3.725-4.46
		c0-2.909-1.704-4.44-3.725-4.44c-2.049,0-3.753,1.531-3.753,4.44C10.906,14.044,12.61,15.573,14.659,15.573"/>
	<polygon clip-path="url(#SVGID_2_)" fill="#FFFFFF" points="25.708,15.837 24.025,15.837 24.025,6.892 21.088,6.892 21.088,6.41 
		28.62,6.41 28.62,6.892 25.708,6.892 	"/>
	<polygon clip-path="url(#SVGID_2_)" fill="#FFFFFF" points="30.563,15.837 30.563,0.222 32.243,0.222 32.243,10.632 37.911,10.632 
		37.911,6.41 39.593,6.41 39.593,15.837 37.911,15.837 37.911,11.113 32.243,11.113 32.243,15.837 	"/>
	<path clip-path="url(#SVGID_2_)" fill="#FFFFFF" d="M41.793,15.837l2.784-8.246c0.238-0.72,0.657-1.4,1.575-1.4
		c1.129,0,1.392,1.226,1.732,2.014l3.228,7.632h-1.705l-1.13-2.668h-4.8l-0.921,2.668H41.793z M48.042,12.687l-1.89-4.527
		c-0.13-0.307-0.235-0.525-0.524-0.525S45.286,7.81,45.182,8.16l-1.523,4.527H48.042z"/>
	<path clip-path="url(#SVGID_2_)" fill="#FFFFFF" d="M53.136,15.837V6.41h2.834c3.149,0,4.854,0.897,4.854,2.713
		c0,1.509-1.602,2.187-3.227,2.275l3.517,4.439h-1.865l-3.832-4.922h0.815c2.78,0,2.913-1.202,2.913-1.989
		c0-1.159-0.971-1.925-2.913-1.925h-1.418v8.836H53.136z"/>
	<path clip-path="url(#SVGID_2_)" fill="#FFFFFF" d="M71.034,15.837V1.664h4.935c4.172,0,6.325,1.597,6.325,3.959
		c0,1.88-1.601,3.433-5.355,3.433h-0.367l5.694,6.781h-2.284l-6.167-7.371h1.286c2.782,0,5.25-0.613,5.25-2.821
		c0-2.647-2.492-3.39-4.513-3.39h-2.966v13.582H71.034z"/>
	<path clip-path="url(#SVGID_2_)" fill="#FFFFFF" d="M83.606,15.837l2.783-8.246c0.234-0.72,0.655-1.4,1.573-1.4
		c1.128,0,1.392,1.226,1.733,2.014l3.227,7.632h-1.706l-1.129-2.668h-4.802l-0.918,2.668H83.606z M89.851,12.687L87.962,8.16
		c-0.13-0.307-0.235-0.525-0.524-0.525c-0.29,0-0.34,0.175-0.445,0.525l-1.525,4.527H89.851z"/>
	<path clip-path="url(#SVGID_2_)" fill="#FFFFFF" d="M94.864,15.837V7.373c0-0.788,0.736-0.963,1.341-0.963
		c0.919,0,1.232,0.351,1.889,1.247l4.278,5.971h0.053V6.41h0.681v9.187c0,0.392-0.156,0.459-0.367,0.459
		c-0.367,0-0.604-0.483-0.97-0.985l-5.302-7.173c-0.209-0.307-0.262-0.481-0.659-0.481c-0.208,0-0.259,0.131-0.259,0.436v7.984
		H94.864z"/>
	<path clip-path="url(#SVGID_2_)" fill="#FFFFFF" d="M106.859,15.837V2.78c0-1.576,0.945-2.558,3.071-2.558
		c0.421,0,0.919,0.064,1.314,0.195v0.568c-0.317-0.173-0.893-0.283-1.208-0.283c-0.894,0-1.497,0.438-1.497,1.29V6.41h2.126v0.482
		h-2.126v8.945H106.859z"/>
	<polygon clip-path="url(#SVGID_2_)" fill="#FFFFFF" points="116.124,15.837 114.443,15.837 114.443,6.892 111.504,6.892 
		111.504,6.41 119.037,6.41 119.037,6.892 116.124,6.892 	"/>
	<g clip-path="url(#SVGID_2_)">
		<path fill="#FFFFFF" d="M50.971,27.902c-0.36,0-0.835-0.006-1.313-0.049l-0.114-0.01v-6.676l0.102-0.02
			c0.516-0.1,1.015-0.147,1.526-0.147c1.087,0,1.937,0.324,2.457,0.938c0.504,0.585,0.761,1.379,0.761,2.357
			c0,1.05-0.267,1.91-0.793,2.559C53.047,27.53,52.115,27.902,50.971,27.902z M50.209,27.231c0.189,0.022,0.45,0.032,0.822,0.032
			c1.729,0,2.681-1.047,2.681-2.948c0.009-0.878-0.216-1.556-0.669-2.013c-0.435-0.44-1.074-0.663-1.897-0.663
			c-0.414,0-0.727,0.042-0.936,0.083V27.231z"/>
	</g>
	<g clip-path="url(#SVGID_2_)">
		<path fill="#FFFFFF" d="M56.937,27.951c-1.239,0-2.071-0.992-2.071-2.469c0-1.587,0.804-2.653,2.001-2.653
			c1.701,0,1.75,2.007,1.75,2.235c0,0.13,0,0.208-0.021,0.308l-0.021,0.1h-3.05c0.035,1.166,0.564,1.831,1.464,1.831
			c0.555,0,0.854-0.119,1.094-0.248l0.136-0.072l0.175,0.598l-0.081,0.051C58.159,27.727,57.715,27.951,56.937,27.951z
			 M55.568,24.853h2.362c-0.011-0.27-0.076-0.784-0.394-1.105c-0.183-0.186-0.426-0.279-0.723-0.279
			C56.055,23.468,55.676,24.185,55.568,24.853z"/>
	</g>
	<g clip-path="url(#SVGID_2_)">
		<path fill="#FFFFFF" d="M60.939,27.961c-0.466,0-1.549-0.213-1.549-2.187v-2.838h0.667v2.751c0,1.087,0.32,1.615,0.978,1.615
			c0.539,0,0.949-0.434,1.116-0.863c0.024-0.082,0.071-0.266,0.071-0.471v-3.032h0.667v3.654c0,0.44,0.011,0.8,0.035,1.13
			l0.01,0.134h-0.647l-0.018-0.568C61.986,27.651,61.536,27.961,60.939,27.961z"/>
	</g>
	<g clip-path="url(#SVGID_2_)">
		<path fill="#FFFFFF" d="M65.291,27.951c-0.354,0-0.636-0.129-0.813-0.371c-0.19-0.242-0.284-0.634-0.284-1.194v-2.819h-0.704
			v-0.63h0.704v-0.814l0.666-0.28v1.095h1.19v0.63h-1.19v2.908c0,0.751,0.275,0.838,0.482,0.838c0.224,0,0.361-0.032,0.438-0.06
			l0.144-0.053l0.087,0.598l-0.09,0.037C65.736,27.912,65.524,27.951,65.291,27.951z"/>
	</g>
	<g clip-path="url(#SVGID_2_)">
		<path fill="#FFFFFF" d="M67.582,27.951c-0.405,0-0.817-0.125-1.13-0.343l-0.08-0.056l0.235-0.63l0.132,0.09
			c0.164,0.112,0.494,0.3,0.869,0.3c0.531,0,0.848-0.284,0.848-0.76c0-0.436-0.203-0.674-0.805-0.946
			c-0.749-0.32-1.131-0.787-1.131-1.389c0-0.69,0.484-1.389,1.41-1.389c0.379,0,0.743,0.116,0.999,0.319l0.073,0.059l-0.258,0.619
			l-0.13-0.104c-0.212-0.169-0.466-0.255-0.754-0.255c-0.505,0-0.684,0.368-0.684,0.683c0,0.406,0.232,0.581,0.787,0.84
			c0.567,0.251,1.149,0.628,1.149,1.504C69.114,27.365,68.498,27.951,67.582,27.951z"/>
	</g>
	<g clip-path="url(#SVGID_2_)">
		<path fill="#FFFFFF" d="M71.733,27.951c-1.251,0-2.124-1.031-2.124-2.507c0-1.54,0.935-2.615,2.272-2.615
			c0.512,0,0.977,0.161,1.173,0.32l0.07,0.057l-0.237,0.61l-0.13-0.088c-0.167-0.114-0.461-0.25-0.911-0.25
			c-1.084,0-1.569,0.967-1.569,1.926c0,1.136,0.613,1.898,1.526,1.898c0.484,0,0.798-0.162,0.984-0.259l0.133-0.068l0.189,0.611
			l-0.092,0.048C72.619,27.845,72.188,27.951,71.733,27.951z"/>
	</g>
	<g clip-path="url(#SVGID_2_)">
		<path fill="#FFFFFF" d="M77.374,27.854h-0.666v-2.887c0-0.553-0.133-1.48-1.023-1.48c-0.491,0-0.96,0.396-1.14,0.964
			c-0.039,0.127-0.046,0.244-0.046,0.429v2.975h-0.668v-7.165h0.668v2.796c0.111-0.141,0.242-0.264,0.386-0.362
			c0.283-0.192,0.6-0.294,0.913-0.294c0.161,0,1.576,0.059,1.576,2.09V27.854z"/>
	</g>
	<g clip-path="url(#SVGID_2_)">
		<path fill="#FFFFFF" d="M80.21,27.951c-1.239,0-2.071-0.992-2.071-2.469c0-1.587,0.805-2.653,2.002-2.653
			c1.7,0,1.749,2.007,1.749,2.235c0,0.13,0,0.208-0.021,0.307l-0.02,0.101H78.8c0.035,1.166,0.563,1.831,1.463,1.831
			c0.582,0,0.87-0.128,1.096-0.248l0.136-0.072l0.173,0.598l-0.08,0.051C81.433,27.727,80.989,27.951,80.21,27.951z M78.84,24.853
			h2.363c-0.011-0.27-0.076-0.784-0.394-1.106c-0.183-0.185-0.425-0.278-0.722-0.278C79.328,23.468,78.949,24.185,78.84,24.853z"/>
	</g>
	<g clip-path="url(#SVGID_2_)">
		<path fill="#FFFFFF" d="M86.014,27.854h-0.667v-6.166h-1.911v-0.64h4.488v0.64h-1.91V27.854z"/>
	</g>
	<g clip-path="url(#SVGID_2_)">
		<path fill="#FFFFFF" d="M89.422,27.951c-1.237,0-2.069-0.992-2.069-2.469c0-1.587,0.804-2.653,2.001-2.653
			c1.7,0,1.749,2.007,1.749,2.235c0,0.13,0,0.208-0.021,0.307l-0.02,0.101h-3.05c0.035,1.166,0.563,1.831,1.463,1.831
			c0.556,0,0.854-0.119,1.096-0.248l0.136-0.072l0.174,0.598l-0.08,0.051C90.646,27.727,90.2,27.951,89.422,27.951z M88.053,24.853
			h2.364c-0.012-0.27-0.077-0.785-0.395-1.106c-0.183-0.185-0.426-0.278-0.722-0.278C88.541,23.468,88.162,24.185,88.053,24.853z"/>
	</g>
	<g clip-path="url(#SVGID_2_)">
		<path fill="#FFFFFF" d="M93.686,27.951c-1.249,0-2.122-1.031-2.122-2.507c0-1.54,0.934-2.615,2.271-2.615
			c0.511,0,0.978,0.161,1.174,0.319l0.071,0.058l-0.238,0.61l-0.13-0.088c-0.168-0.114-0.463-0.25-0.911-0.25
			c-1.159,0-1.57,1.037-1.57,1.926c0,1.136,0.613,1.898,1.526,1.898c0.485,0,0.799-0.162,0.985-0.259l0.134-0.068l0.186,0.61
			l-0.091,0.049C94.583,27.842,94.139,27.951,93.686,27.951z"/>
	</g>
	<g clip-path="url(#SVGID_2_)">
		<path fill="#FFFFFF" d="M99.326,27.854h-0.667v-2.887c0-0.553-0.133-1.48-1.021-1.48c-0.492,0-0.961,0.396-1.14,0.963
			c-0.039,0.133-0.047,0.254-0.047,0.43v2.975h-0.667v-7.165h0.667v2.797c0.111-0.143,0.243-0.266,0.389-0.363
			c0.285-0.195,0.592-0.294,0.911-0.294c0.161,0,1.575,0.059,1.575,2.09V27.854z"/>
	</g>
	<g clip-path="url(#SVGID_2_)">
		<path fill="#FFFFFF" d="M103.98,27.854h-0.666v-2.887c0-0.561-0.134-1.5-1.03-1.5c-0.509,0-0.974,0.406-1.13,0.987
			c-0.023,0.091-0.049,0.237-0.049,0.375v3.024h-0.666V24.18c0-0.423-0.01-0.745-0.034-1.11l-0.009-0.133h0.644l0.018,0.554
			c0.314-0.411,0.806-0.661,1.339-0.661c0.265,0,1.584,0.102,1.584,2.099V27.854z"/>
	</g>
	<g clip-path="url(#SVGID_2_)">
		<path fill="#FFFFFF" d="M105.759,27.855h-0.666v-4.919h0.666V27.855z M105.418,22.253h-0.008c-0.251,0-0.447-0.23-0.447-0.524
			s0.208-0.532,0.464-0.532c0.255,0,0.454,0.233,0.454,0.532S105.682,22.253,105.418,22.253z"/>
	</g>
	<g clip-path="url(#SVGID_2_)">
		<path fill="#FFFFFF" d="M110.314,27.854h-0.81l-1.646-2.371l-0.293,0.347v2.024H106.9v-7.165h0.665v4.267
			c0.066-0.084,0.135-0.17,0.198-0.244l1.516-1.775h0.834l-1.802,2.068L110.314,27.854z"/>
	</g>
	<rect x="0.397" y="25.39" clip-path="url(#SVGID_2_)" fill="#EBBD00" width="45.801" height="2.122"/>
	<rect x="0.397" y="23.262" clip-path="url(#SVGID_2_)" fill="#E30613" width="45.801" height="2.128"/>
	<rect x="0.397" y="21.139" clip-path="url(#SVGID_2_)" fill="#1D1D1B" width="45.801" height="2.123"/>
	<rect x="112.159" y="25.39" clip-path="url(#SVGID_2_)" fill="#EBBD00" width="6.879" height="2.122"/>
	<rect x="112.159" y="23.262" clip-path="url(#SVGID_2_)" fill="#E30613" width="6.879" height="2.128"/>
	<rect x="112.159" y="21.139" clip-path="url(#SVGID_2_)" fill="#1D1D1B" width="6.879" height="2.123"/>
</g>
</svg>
